<?xml version="1.0" standalone="no"?>
<!DOCTYPE svg PUBLIC "-//W3C//DTD SVG 20010904//EN"
 "http://www.w3.org/TR/2001/REC-SVG-20010904/DTD/svg10.dtd">
<svg version="1.0" xmlns="http://www.w3.org/2000/svg"
 width="300.000000pt" height="307.000000pt" 
 preserveAspectRatio="xMidYMid meet">

 <symbol id="envelopeId" viewBox="0 0 300.000000 307.000000"> 
<metadata>
Created by potrace 1.10, written by Peter Selinger 2001-2011
</metadata>
<g transform="translate(0.000000,307.000000) scale(0.100000,-0.100000)"
fill="#000000" stroke="none">
<path d="M58 2734 c-18 -9 -30 -27 -36 -52 -5 -21 -9 -527 -8 -1170 l1 -1134
33 -29 33 -29 1430 2 1431 3 24 28 24 28 0 1155 0 1156 -29 29 -29 29 -1424 0
c-1234 -1 -1427 -3 -1450 -16z m2862 -37 l25 -13 0 -1149 0 -1149 -25 -13
c-20 -10 -316 -13 -1423 -13 l-1398 0 -24 25 -25 24 0 1128 c0 620 4 1133 8
1139 22 33 38 33 1442 34 1105 0 1400 -3 1420 -13z"/>
<path d="M369 2581 c-20 -16 -22 -22 -12 -44 7 -15 146 -133 310 -264 164
-131 300 -240 303 -244 9 -10 454 -364 489 -389 28 -19 38 -22 61 -13 27 10
1007 790 1083 862 55 51 60 64 36 90 l-20 21 -1113 0 c-1076 0 -1115 -1 -1137
-19z m2258 -23 c-1 -3 -254 -209 -563 -456 l-561 -450 -565 452 c-312 248
-567 453 -567 456 -1 3 507 5 1129 5 621 0 1129 -3 1127 -7z"/>
<path d="M194 2482 c-33 -22 -34 -45 -34 -977 0 -1016 -4 -955 60 -1009 l32
-26 1246 0 c1219 0 1248 1 1279 20 18 10 40 34 50 52 17 31 18 87 18 970 l0
937 -22 23 c-19 18 -26 20 -47 10 -14 -6 -301 -232 -637 -502 -444 -356 -618
-490 -636 -490 -23 0 -331 242 -1078 845 -202 163 -205 165 -231 147z m666
-547 c294 -235 549 -440 565 -456 37 -34 84 -46 116 -29 13 7 26 16 29 20 3 4
257 209 565 455 308 247 586 471 618 498 l57 49 0 -942 c0 -1011 1 -982 -49
-1010 -13 -7 -429 -10 -1261 -10 l-1242 0 -29 29 -29 29 0 952 0 952 63 -54
c34 -30 303 -247 597 -483z"/>
</g>
</symbol>
</svg>
